<?xml version="1.0" standalone="no"?>
<!DOCTYPE svg PUBLIC "-//W3C//DTD SVG 20010904//EN"
 "http://www.w3.org/TR/2001/REC-SVG-20010904/DTD/svg10.dtd">
<svg version="1.0" xmlns="http://www.w3.org/2000/svg"
 width="1306.000000pt" height="1306.000000pt" viewBox="0 0 1306.000000 1306.000000"
 preserveAspectRatio="xMidYMid meet">
<metadata>
Created by potrace 1.11, written by Peter Selinger 2001-2013
</metadata>
<g transform="translate(0.000000,1306.000000) scale(0.100000,-0.100000)"
fill="#000000" stroke="none">
<path d="M7617 11134 c-1 -2 -99 -5 -217 -8 -299 -9 -539 -15 -715 -21 -82 -2
-235 -7 -340 -10 -232 -7 -265 -10 -321 -36 -47 -22 -99 -75 -115 -116 -13
-35 -13 -90 1 -148 6 -27 14 -59 16 -70 19 -95 43 -209 68 -325 14 -63 27
-126 30 -140 2 -14 27 -133 56 -265 28 -132 65 -305 82 -385 44 -211 55 -244
91 -292 61 -80 175 -136 282 -140 45 -1 161 3 485 17 280 12 366 16 495 20 76
3 184 7 240 10 55 2 170 7 255 10 355 13 380 17 441 58 18 12 47 41 63 65 25
35 30 52 29 95 0 28 -3 61 -6 72 -3 11 -12 49 -20 85 -8 36 -18 72 -21 80 -3
8 -8 26 -10 40 -3 14 -7 34 -10 45 -16 67 -48 196 -57 230 -5 22 -12 50 -14
62 -3 12 -39 158 -81 325 -42 167 -77 311 -79 320 -55 262 -94 327 -240 395
-58 27 -66 28 -223 28 -90 0 -164 0 -165 -1z"/>
<path d="M5697 8974 c-1 -1 -76 -5 -167 -8 -91 -4 -208 -9 -260 -11 -94 -5
-207 -9 -490 -20 -80 -3 -183 -8 -230 -10 -47 -2 -159 -7 -250 -10 -193 -7
-339 -14 -360 -18 -92 -19 -166 -71 -201 -140 -21 -41 -28 -106 -17 -162 7
-35 25 -135 33 -185 6 -36 41 -235 49 -280 3 -14 12 -65 21 -115 14 -86 18
-109 30 -172 3 -16 10 -57 15 -92 6 -36 12 -67 14 -70 2 -3 7 -30 10 -60 4
-29 8 -57 11 -60 2 -4 6 -28 9 -53 3 -25 8 -52 10 -59 3 -8 8 -32 11 -54 21
-148 59 -334 77 -372 31 -67 122 -137 209 -164 72 -22 139 -22 439 -4 30 2
123 6 205 10 83 4 173 9 200 10 288 16 434 23 570 30 66 3 152 7 190 10 39 2
126 7 195 10 207 10 242 14 295 39 92 42 148 124 147 218 0 26 -43 241 -98
493 -5 24 -12 59 -19 100 -3 17 -8 38 -11 47 -5 17 -11 43 -20 93 -3 17 -10
50 -15 75 -6 25 -31 142 -55 260 -25 118 -47 222 -49 230 -1 8 -15 74 -30 145
-31 148 -49 190 -106 245 -72 70 -157 102 -277 104 -45 1 -84 1 -85 0z"/>
<path d="M3007 8863 c-1 -1 -76 -4 -167 -8 -91 -3 -205 -8 -255 -10 -81 -4
-213 -9 -485 -20 -168 -6 -543 -22 -730 -30 -58 -3 -118 -8 -134 -11 -93 -20
-181 -90 -212 -170 -16 -41 -16 -56 -5 -157 7 -62 16 -130 21 -152 5 -22 11
-68 14 -101 3 -34 8 -68 10 -75 3 -8 7 -36 10 -64 3 -27 8 -61 10 -75 3 -14
10 -68 16 -120 7 -52 14 -103 16 -114 2 -10 6 -44 9 -75 4 -31 8 -63 10 -71 2
-8 7 -37 10 -65 4 -27 8 -61 10 -75 2 -14 7 -47 10 -75 4 -27 8 -61 10 -75 2
-14 9 -61 15 -106 6 -44 12 -89 14 -100 2 -10 7 -44 11 -74 3 -30 9 -68 11
-85 24 -149 198 -270 376 -259 24 1 108 5 188 8 80 4 161 9 180 11 19 2 105 7
190 10 85 4 184 8 220 10 152 9 271 15 365 20 55 3 143 8 195 11 52 2 136 7
185 9 378 17 427 22 490 49 127 57 176 164 146 318 -5 29 -13 69 -15 88 -3 19
-8 45 -10 56 -2 12 -7 39 -10 60 -4 22 -16 93 -27 159 -12 66 -23 134 -26 150
-3 26 -29 166 -38 216 -2 9 -6 34 -9 55 -4 22 -20 120 -37 219 -17 99 -33 189
-34 200 -2 11 -6 36 -10 55 -4 19 -15 83 -25 142 -22 124 -36 159 -87 212 -80
82 -180 116 -331 113 -52 -1 -94 -3 -95 -4z"/>
<path d="M11306 7023 c-1 -1 -55 -4 -121 -7 -66 -3 -158 -8 -205 -11 -47 -2
-132 -7 -190 -10 -58 -3 -150 -8 -205 -11 -55 -4 -129 -7 -165 -9 -97 -4 -305
-15 -390 -20 -41 -3 -126 -7 -189 -10 -62 -3 -136 -8 -163 -10 -130 -12 -228
-106 -230 -222 0 -30 42 -219 116 -513 64 -256 119 -472 121 -480 50 -212 162
-648 176 -687 35 -93 141 -180 256 -210 57 -15 91 -15 338 2 33 2 103 6 155
10 52 3 122 8 155 10 33 3 103 7 155 10 52 3 120 8 150 10 30 2 98 6 150 9 91
6 157 10 320 21 41 3 109 7 150 10 325 21 361 24 400 36 56 18 109 59 137 107
42 72 37 129 -36 382 -34 118 -64 223 -66 232 -6 28 -164 588 -181 643 -9 28
-18 61 -21 74 -2 14 -7 29 -10 34 -3 5 -12 34 -19 65 -21 83 -19 77 -57 208
-49 169 -71 207 -161 269 -79 54 -155 74 -271 72 -53 -1 -98 -3 -99 -4z"/>
<path d="M8677 6884 c-1 -1 -67 -5 -147 -9 -80 -3 -172 -8 -205 -10 -33 -2
-109 -6 -170 -9 -60 -4 -155 -9 -210 -12 -55 -2 -140 -7 -190 -9 -49 -3 -133
-7 -185 -10 -142 -8 -252 -14 -376 -20 -138 -6 -178 -12 -230 -35 -112 -49
-169 -174 -134 -300 5 -19 12 -48 14 -65 3 -16 8 -41 11 -55 3 -14 10 -47 15
-73 5 -27 12 -52 14 -55 2 -4 7 -28 11 -52 3 -25 10 -61 15 -80 5 -19 18 -78
29 -130 11 -52 32 -149 46 -215 14 -66 30 -140 35 -165 5 -25 12 -56 15 -70 3
-14 7 -36 10 -50 6 -30 7 -35 39 -182 14 -64 27 -127 30 -140 2 -13 11 -55 20
-93 8 -39 17 -82 20 -95 22 -105 46 -151 108 -209 35 -33 135 -88 178 -96 28
-6 190 -7 235 -1 17 2 84 7 150 11 66 4 140 8 165 10 63 5 210 14 303 20 42 3
112 7 155 10 42 3 113 7 157 10 44 3 112 7 150 10 39 3 111 7 160 10 50 4 119
8 155 10 36 3 103 7 150 10 192 12 227 17 276 40 127 57 170 166 129 325 -9
36 -18 72 -20 80 -2 8 -11 44 -20 80 -9 36 -18 73 -20 82 -4 17 -68 280 -140
568 -20 80 -38 153 -40 163 -2 10 -6 26 -9 35 -3 9 -7 28 -10 42 -16 86 -129
517 -142 542 -39 75 -130 147 -222 173 -41 12 -89 16 -189 14 -73 -2 -135 -4
-136 -5z"/>
<path d="M6607 4383 c-1 -1 -47 -4 -102 -8 -55 -3 -122 -8 -150 -10 -27 -2
-95 -7 -150 -10 -55 -4 -127 -8 -160 -11 -33 -2 -98 -6 -145 -9 -47 -3 -114
-8 -150 -10 -125 -9 -206 -14 -300 -20 -52 -3 -122 -8 -155 -10 -33 -3 -100
-7 -150 -10 -421 -26 -434 -28 -519 -106 -75 -69 -103 -147 -85 -243 4 -22 10
-57 13 -76 3 -19 14 -87 26 -150 28 -159 26 -152 49 -280 26 -151 48 -277 56
-320 3 -19 10 -60 15 -90 6 -30 12 -66 15 -80 2 -14 18 -102 34 -195 17 -94
33 -188 36 -210 4 -22 12 -74 20 -115 8 -41 22 -115 31 -165 21 -115 42 -160
99 -219 46 -46 132 -96 189 -110 33 -8 150 -9 216 -2 25 3 86 8 135 11 50 3
106 8 125 10 19 2 78 6 130 10 52 3 111 8 130 10 19 2 71 6 115 10 177 13 222
16 260 20 22 2 81 7 130 10 50 4 110 8 135 10 25 3 79 7 120 10 41 3 98 7 125
10 28 2 86 7 130 10 44 3 100 8 125 10 25 3 83 7 130 10 142 10 211 36 273
104 20 22 43 57 52 77 25 61 25 109 0 224 -3 14 -8 39 -11 55 -3 17 -20 102
-39 190 -19 88 -48 228 -65 310 -102 488 -112 535 -146 690 -2 11 -6 31 -9 45
-3 14 -19 90 -36 170 -17 80 -33 159 -36 175 -8 51 -50 128 -90 166 -95 90
-175 119 -317 116 -54 -1 -98 -3 -99 -4z"/>
</g>
</svg>
